<?xml version="1.0" standalone="no"?>
<!DOCTYPE svg PUBLIC "-//W3C//DTD SVG 20010904//EN"
 "http://www.w3.org/TR/2001/REC-SVG-20010904/DTD/svg10.dtd">
<svg version="1.0" xmlns="http://www.w3.org/2000/svg"
 width="1200.000000pt" height="1200.000000pt" viewBox="0 0 1200.000000 1200.000000"
 preserveAspectRatio="xMidYMid meet">

<g transform="translate(0.000000,1200.000000) scale(0.100000,-0.100000)"
fill="#000000" stroke="none">
<path d="M5645 10470 c-613 -73 -1120 -267 -1608 -613 -466 -332 -873 -826
-1107 -1345 -217 -483 -310 -945 -297 -1482 9 -350 55 -629 158 -947 284 -877
915 -1602 1744 -2003 923 -446 2011 -446 2930 0 1072 521 1787 1555 1895 2740
13 149 13 453 -1 600 -88 952 -569 1815 -1335 2391 -588 442 -1305 682 -2034
678 -119 -1 -253 -8 -345 -19z m675 -201 c661 -60 1328 -360 1830 -824 235
-216 442 -477 610 -768 55 -96 130 -248 130 -264 0 -3 -6 0 -14 6 -28 23 -175
70 -252 81 -91 12 -261 1 -359 -25 -89 -23 -232 -97 -303 -158 -241 -207 -410
-510 -923 -1655 l-37 -84 -6 59 c-3 32 -22 299 -42 593 -72 1096 -81 1211 -90
1220 -5 5 -20 11 -34 15 -24 5 -56 -44 -675 -1034 -357 -572 -651 -1038 -653
-1036 -3 3 -142 2038 -142 2088 0 22 -5 27 -24 27 -20 0 -30 -14 -66 -87 -43
-91 -505 -1092 -636 -1380 -245 -540 -411 -821 -588 -999 -84 -84 -115 -107
-186 -142 -118 -58 -183 -73 -340 -79 -189 -7 -312 26 -437 116 -38 28 -44 38
-87 168 -340 1031 -146 2137 524 2983 106 135 375 403 510 510 310 246 707
451 1083 560 390 112 783 148 1207 109z m2384 -1875 c69 -18 180 -72 224 -108
65 -56 173 -442 219 -781 24 -184 24 -600 -1 -780 -51 -378 -142 -676 -306
-1010 -171 -347 -360 -607 -637 -876 -487 -473 -1093 -767 -1780 -865 -151
-21 -541 -30 -698 -15 -1111 105 -2053 744 -2556 1733 l-69 138 33 -20 c158
-93 454 -107 668 -31 117 41 183 86 295 196 207 205 345 450 732 1303 l170
373 6 -48 c3 -26 31 -428 61 -893 30 -465 58 -864 61 -887 4 -35 9 -43 36 -52
17 -6 32 -10 33 -9 10 14 1264 2023 1281 2052 l22 39 6 -64 c8 -77 136 -2001
136 -2035 0 -19 5 -24 25 -24 21 0 30 11 59 68 29 57 459 990 679 1472 358
785 598 1073 942 1129 144 23 255 22 359 -5z"/>
</g>
</svg>
